<svg width="176" height="23" viewBox="0 0 176 23" fill="none" xmlns="http://www.w3.org/2000/svg">
<g id="logo">
<path id="Vector" d="M0.318848 22.3952C0.318848 15.0609 0.318848 7.75848 0.318848 0.436963C0.593851 0.41788 0.806353 0.392436 1.02511 0.392436C6.81267 0.392436 12.6002 0.360631 18.3878 0.436963C19.6003 0.456046 20.8566 0.742291 22.0128 1.1494C23.6503 1.72189 24.4004 3.08314 24.4629 4.82606C24.4879 5.58302 24.4629 6.34634 24.4691 7.1033C24.4879 8.76988 23.8691 10.0484 22.3253 10.7609C22.3441 10.8308 22.3441 10.9263 22.3753 10.939C24.2254 11.6451 24.8629 13.0763 24.7629 14.9846C24.7129 16.0278 24.7816 17.0774 24.7191 18.1206C24.6066 20.1116 23.4566 21.352 21.6566 21.8481C20.3816 22.2043 19.0315 22.4015 17.7065 22.4142C12.1127 22.4779 6.50641 22.446 0.906354 22.4397C0.725102 22.4397 0.54385 22.4142 0.318848 22.3952ZM11.6565 12.5992C9.48145 12.5992 7.30642 12.6119 5.1314 12.5865C4.55014 12.5801 4.28764 12.7201 4.30639 13.3753C4.34389 15.0482 4.33139 16.7275 4.31264 18.4068C4.30639 18.9539 4.43764 19.2019 5.03765 19.2019C9.41895 19.1828 13.8065 19.221 18.1878 19.151C18.869 19.1383 19.6566 18.8012 20.1941 18.3623C20.9566 17.7389 21.0128 14.2658 20.3691 13.4834C20.1253 13.1844 19.7503 12.9427 19.3816 12.8218C18.919 12.6692 18.4065 12.6183 17.919 12.6119C15.8253 12.5865 13.744 12.5992 11.6565 12.5992ZM4.36889 9.30421C4.71889 9.31693 5.02515 9.34237 5.3314 9.34237C7.41892 9.34873 9.50645 9.34237 11.594 9.34237C13.9002 9.34237 16.2065 9.36145 18.5065 9.32965C19.8691 9.31057 20.3753 8.80169 20.4316 7.44043C20.4628 6.68347 20.4128 5.92015 20.3878 5.16319C20.3628 4.38079 19.9316 3.93552 19.2066 3.78921C18.7815 3.70016 18.344 3.63655 17.9128 3.63655C13.6752 3.62383 9.44395 3.63019 5.2064 3.63019C4.93765 3.63019 4.66889 3.66835 4.36889 3.6938C4.36889 5.59574 4.36889 7.41499 4.36889 9.30421Z" fill="#00FF85"/>
<path id="Vector_2" d="M100.07 22.3887C98.8201 22.3887 97.6451 22.3887 96.37 22.3887C96.37 17.3254 96.37 12.3129 96.37 7.01418C96.0138 7.47217 95.82 7.70117 95.6513 7.94289C92.395 12.5037 89.1325 17.0582 85.9012 21.6381C85.4699 22.2488 84.9949 22.3824 84.2949 22.4714C82.5699 22.7004 81.5636 21.9816 80.5949 20.544C77.7323 16.3203 74.6948 12.2238 71.7198 8.08283C71.5385 7.83475 71.3448 7.59939 71.0198 7.17957C71.0198 12.3638 71.0198 17.3445 71.0198 22.3824C69.726 22.3824 68.5322 22.3824 67.2822 22.3824C67.2822 15.0736 67.2822 7.80295 67.2822 0.392371C68.4322 0.392371 69.5697 0.354205 70.7073 0.424176C70.9635 0.436898 71.251 0.793115 71.4385 1.05392C75.3636 6.53074 79.2824 12.0139 83.2011 17.4971C83.3824 17.7516 83.5762 17.9996 83.8262 18.3368C84.1324 17.917 84.4137 17.548 84.6762 17.1727C88.495 11.8104 92.3137 6.45441 96.1075 1.07936C96.4825 0.551397 96.8638 0.335122 97.4888 0.373288C98.3263 0.424176 99.1638 0.38601 100.07 0.38601C100.07 7.73934 100.07 15.0354 100.07 22.3887Z" fill="#00FF85"/>
<path id="Vector_3" d="M149.977 22.3951C148.783 22.3951 147.702 22.3951 146.545 22.3951C146.545 15.099 146.545 7.8093 146.545 0.449614C148.327 0.335116 149.952 0.271506 151.583 1.55643C157.833 6.47985 164.214 11.2252 170.552 16.0404C170.796 16.2249 171.052 16.3967 171.446 16.6765C171.446 11.1997 171.446 5.86919 171.446 0.462336C172.683 0.462336 173.821 0.462336 175.014 0.462336C175.014 7.74569 175.014 15.0481 175.014 22.4078C174.014 22.4523 173.133 22.5032 172.208 21.8099C165.127 16.4794 158.002 11.2188 150.883 5.93916C150.639 5.76106 150.383 5.60839 149.97 5.33487C149.977 11.117 149.977 16.7338 149.977 22.3951Z" fill="#00FF85"/>
<path id="Vector_4" d="M102.851 22.446C104.914 19.2846 106.851 16.3013 108.795 13.3307C111.451 9.26603 114.12 5.22043 116.745 1.14302C117.12 0.56417 117.532 0.443311 118.17 0.366979C119.676 0.18251 120.533 0.774083 121.358 2.07809C125.514 8.65537 129.789 15.1563 134.02 21.6827C134.151 21.8863 134.27 22.1025 134.476 22.446C132.964 22.446 131.576 22.4778 130.195 22.4142C129.958 22.4015 129.676 22.0262 129.508 21.7654C126.058 16.3077 122.626 10.8372 119.183 5.37309C119.064 5.18862 118.939 5.01051 118.739 4.71791C117.77 6.22547 116.839 7.65669 115.92 9.10064C113.22 13.318 110.52 17.5353 107.845 21.7718C107.52 22.2806 107.189 22.5033 106.576 22.4715C105.401 22.4015 104.226 22.446 102.851 22.446Z" fill="#00FF85"/>
<path id="Vector_5" d="M52.6694 3.61111C52.6694 9.96576 52.6694 16.1359 52.6694 22.3761C51.3069 22.3761 49.9881 22.3761 48.5819 22.3761C48.5819 16.1614 48.5819 9.96576 48.5819 3.67472C44.8068 3.67472 41.1193 3.67472 37.3442 3.67472C37.3442 2.56155 37.3442 1.53743 37.3442 0.456055C46.0818 0.456055 54.8132 0.456055 63.6195 0.456055C63.6195 1.44837 63.6195 2.47249 63.6195 3.61111C60.0195 3.61111 56.4007 3.61111 52.6694 3.61111Z" fill="#00FF85"/>
<path id="Vector_6" d="M137.427 0.239746C138.827 0.239746 140.158 0.239746 141.558 0.239746C141.558 7.61852 141.558 14.9718 141.558 22.3888C140.202 22.3888 138.852 22.3888 137.427 22.3888C137.427 15.0418 137.427 7.68849 137.427 0.239746Z" fill="#00FF85"/>
<path id="Vector_7" d="M29.563 22.3887C29.563 14.9845 29.563 7.65027 29.563 0.265137C30.8943 0.265137 32.188 0.265137 33.5443 0.265137C33.5443 7.62482 33.5443 14.9781 33.5443 22.3887C32.238 22.3887 30.9505 22.3887 29.563 22.3887Z" fill="#00FF85"/>
</g>
</svg>
