<svg width="159" height="35" viewBox="0 0 159 35" fill="none" xmlns="http://www.w3.org/2000/svg">
<g id="logo">
<path id="Vector" d="M22.8637 34.1484H21.7275C22.0969 34.1484 22.4607 34.0876 22.8022 33.9827L22.8637 34.1484Z" fill="#7F7F7F"/>
<path id="Vector_2" d="M38.9941 14.451H32.7031V34.3142H38.9941V14.451Z" fill="#00FF85"/>
<path id="Vector_3" d="M76.2979 26.6176H75.7214V26.0485L76.2979 26.6176C77.8259 26.6176 79.214 26.0043 80.2158 25.0153C81.2177 24.0262 81.8389 22.656 81.8389 21.1476V19.921C81.8389 16.8987 79.3595 14.451 76.2979 14.451H61.7178V18.9265H74.0927C74.9938 18.9265 75.7214 19.6448 75.7214 20.5343C75.7214 21.4239 74.9938 22.1421 74.0927 22.1421H68.3278V22.1477H61.7178V34.3087H66.8726V26.6176H68.2774L76.0684 34.3087H84.0833L76.2979 26.6176Z" fill="#00FF85"/>
<path id="Vector_4" d="M82.3374 21.3962V27.3635C82.3374 31.198 85.4885 34.3087 89.3728 34.3087H99.8672C103.751 34.3087 106.903 31.198 106.903 27.3635V21.3962C106.903 17.5617 103.751 14.451 99.8672 14.451H89.3728C85.4885 14.451 82.3374 17.5617 82.3374 21.3962ZM88.6788 27.5845V21.1752C88.6788 19.9321 89.6974 18.9265 90.9568 18.9265H98.2888C99.5481 18.9265 100.567 19.9321 100.567 21.1752V27.579C100.567 28.8221 99.5481 29.8277 98.2888 29.8277H90.9568C89.6974 29.8332 88.6788 28.8277 88.6788 27.5845Z" fill="#00FF85"/>
<path id="Vector_5" d="M158.652 8.18542V13.8653H148.79V34.3086H142.085V13.8653H132.262V8.18542H158.652Z" fill="#00FF85"/>
<path id="Vector_6" d="M108.391 8.18546V34.3087H123.8C127.606 34.3087 130.695 31.2643 130.695 27.5016V25.8164C130.695 24.4075 130.18 23.0483 129.245 21.9819L128.602 21.2471L129.184 20.6006C130.158 19.5232 130.695 18.1364 130.695 16.6943V14.987C130.695 11.2298 127.611 8.17993 123.8 8.17993H108.391V8.18546ZM123.089 28.7061H113.557V23.634H123.089C124.141 23.634 124.997 24.4793 124.997 25.5181V26.822C124.997 27.8607 124.141 28.7061 123.089 28.7061ZM123.089 18.932H113.557V13.8654H123.089C124.141 13.8654 124.997 14.7107 124.997 15.7495V17.0534C124.997 18.0922 124.141 18.932 123.089 18.932Z" fill="#00FF85"/>
<path id="Vector_7" d="M76.2982 26.6175H75.7217V26.054L76.2982 26.6175Z" fill="#00FF85"/>
<path id="Vector_8" d="M76.2982 26.6175H75.7217V26.054L76.2982 26.6175Z" fill="#00FF85"/>
<path id="Vector_9" d="M76.2982 26.6175H75.7217V26.054L76.2982 26.6175Z" fill="#00FF85"/>
<path id="Vector_10" d="M47.1152 21.3576V27.4077C47.1152 28.6785 48.1619 29.7117 49.4492 29.7117H59.1152V34.3087H47.6246C43.869 34.3087 40.8242 31.303 40.8242 27.5955V21.1642C40.8242 17.4568 43.869 14.451 47.6246 14.451H59.1152V19.0536H49.4492C48.1563 19.0536 47.1152 20.0812 47.1152 21.3576Z" fill="#00FF85"/>
<path id="Vector_11" d="M38.9943 8.67163H34.2368V13.3681H38.9943V8.67163Z" fill="#00FF85"/>
<path id="Vector_12" d="M41.994 3.54431H37.897V7.30146H41.994V3.54431Z" fill="#00FF85"/>
<path id="Vector_13" d="M36.2852 0.439087H33.1396V3.54426H36.2852V0.439087Z" fill="#00FF85"/>
<path id="Vector_14" d="M46.6733 3.11328H43.5278V5.6383H46.6733V3.11328Z" fill="#00FF85"/>
<path id="Vector_15" d="M32.1043 8.24066V14.4565C31.5054 14.567 31.0185 14.9814 30.817 15.5339L28.22 22.8272L25.0073 31.8554C24.6435 32.8831 23.8152 33.6566 22.8021 33.9826C22.4607 34.0931 22.1025 34.1484 21.7275 34.1484H18.6548C17.1771 34.1484 15.8675 33.2312 15.3749 31.8554L12.1622 22.8272L9.56525 15.5339C9.291 14.788 8.49622 14.2908 7.6119 14.4621C6.82273 14.6168 6.24624 15.3185 6.24624 16.1141C6.24624 16.2467 6.26303 16.3738 6.29101 16.4953V34.3086H0V16.1086C0 12.0862 3.05036 8.77109 6.99064 8.29039C7.31526 8.25172 7.64548 8.22961 7.9813 8.22961C11.4234 8.22961 14.3563 10.3844 15.4757 13.4012C15.4757 13.4067 15.4813 13.4123 15.4813 13.4178L15.5428 13.5891C15.5428 13.5946 15.5428 13.5946 15.5484 13.6001L20.1939 26.6452L24.8394 13.6001C24.8394 13.5946 24.8394 13.5946 24.845 13.5891L24.9066 13.4178C24.9066 13.4123 24.9122 13.4067 24.9122 13.4012C25.9924 10.4729 28.7909 8.35669 32.1043 8.24066Z" fill="#00FF85"/>
</g>
</svg>
