<svg width="32" height="32" viewBox="0 0 32 32" fill="none" xmlns="http://www.w3.org/2000/svg">
<path d="M15.0695 28.8198C15.3647 28.992 15.5123 29.0782 15.7206 29.1228C15.8822 29.1575 16.1181 29.1575 16.2797 29.1228C16.488 29.0782 16.6356 28.9921 16.9308 28.8198C19.5282 27.3045 26.6668 22.5446 26.6668 16V9.62347C26.6668 8.55745 26.6668 8.02445 26.4925 7.56627C26.3385 7.16152 26.0882 6.80037 25.7633 6.51404C25.3955 6.18992 24.8964 6.00277 23.8983 5.62847L16.7492 2.94757C16.472 2.84362 16.3334 2.79165 16.1908 2.77104C16.0644 2.75277 15.9359 2.75277 15.8095 2.77104C15.6669 2.79165 15.5283 2.84362 15.2511 2.94757L8.10204 5.62847C7.10389 6.00277 6.60482 6.18992 6.23704 6.51404C5.91214 6.80037 5.66186 7.16152 5.50784 7.56627C5.3335 8.02445 5.3335 8.55745 5.3335 9.62347V16C5.3335 22.5446 12.4721 27.3045 15.0695 28.8198Z" fill="#191D27"/>
<path d="M12.0002 15.3333L14.6668 18L20.6668 12M26.6668 16C26.6668 22.5446 19.5282 27.3045 16.9308 28.8198C16.6356 28.9921 16.488 29.0782 16.2797 29.1228C16.1181 29.1575 15.8822 29.1575 15.7206 29.1228C15.5123 29.0782 15.3647 28.992 15.0695 28.8198C12.4721 27.3045 5.3335 22.5446 5.3335 16V9.62347C5.3335 8.55745 5.3335 8.02445 5.50784 7.56627C5.66186 7.16152 5.91214 6.80037 6.23704 6.51404C6.60482 6.18992 7.10389 6.00277 8.10204 5.62847L15.2511 2.94757C15.5283 2.84362 15.6669 2.79165 15.8095 2.77104C15.9359 2.75277 16.0644 2.75277 16.1908 2.77104C16.3334 2.79165 16.472 2.84362 16.7492 2.94757L23.8983 5.62847C24.8964 6.00277 25.3955 6.18992 25.7633 6.51404C26.0882 6.80037 26.3385 7.16152 26.4925 7.56627C26.6668 8.02445 26.6668 8.55745 26.6668 9.62347V16Z" stroke="#E3EFFF" stroke-width="1.6" stroke-linecap="round" stroke-linejoin="round"/>
</svg>
