<svg width="30" height="30" viewBox="0 0 30 30" fill="none" xmlns="http://www.w3.org/2000/svg">
<mask id="mask0_1_120" style="mask-type:alpha" maskUnits="userSpaceOnUse" x="0" y="0" width="30" height="30">
<circle cx="14.6154" cy="14.6154" r="14.6154" fill="#D9D9D9"/>
</mask>
<g mask="url(#mask0_1_120)">
<path d="M14.6155 -4.61548C3.99454 -4.61548 -4.61523 3.9943 -4.61523 14.6153C-4.61523 25.2363 3.99454 33.8461 14.6155 33.8461C25.2365 33.8461 33.8463 25.2363 33.8463 14.6153C33.8463 3.9943 25.2365 -4.61548 14.6155 -4.61548ZM22.438 11.1377C22.4461 11.302 22.4481 11.4663 22.4481 11.6265C22.4481 16.6345 18.64 22.4058 11.6728 22.4058C9.61412 22.4092 7.59824 21.8179 5.86754 20.703C6.16201 20.7391 6.46449 20.7531 6.77098 20.7531C8.54582 20.7531 10.1784 20.1501 11.4745 19.1325C10.6847 19.117 9.91936 18.8555 9.28523 18.3844C8.65109 17.9132 8.17974 17.256 7.93685 16.5043C8.50407 16.6122 9.08839 16.5896 9.64558 16.4382C8.78831 16.2649 8.01737 15.8003 7.46351 15.1234C6.90964 14.4465 6.60693 13.5989 6.60672 12.7243V12.6782C7.11754 12.9606 7.70247 13.1329 8.32347 13.153C7.51978 12.618 6.95084 11.7961 6.73301 10.8555C6.51518 9.91496 6.66492 8.92669 7.15159 8.09285C8.10302 9.26273 9.28953 10.2198 10.6343 10.902C11.9791 11.5842 13.4521 11.9764 14.9581 12.0532C14.7666 11.2405 14.849 10.3873 15.1925 9.62632C15.5359 8.8653 16.1212 8.23907 16.8573 7.84499C17.5933 7.4509 18.439 7.31105 19.2628 7.44716C20.0865 7.58328 20.8422 7.98774 21.4124 8.59766C22.2601 8.42994 23.073 8.11901 23.8163 7.67819C23.5337 8.55586 22.9422 9.30114 22.1516 9.77555C22.9025 9.68511 23.6357 9.48323 24.3271 9.17659C23.8192 9.9376 23.1795 10.6017 22.438 11.1377Z" fill="#E3EFFF"/>
</g>
</svg>
