<svg width="33" height="33" viewBox="0 0 33 33" fill="none" xmlns="http://www.w3.org/2000/svg">
<path d="M16.5 33C25.6127 33 33 25.6127 33 16.5C33 7.3873 25.6127 0 16.5 0C7.3873 0 0 7.3873 0 16.5C0 25.6127 7.3873 33 16.5 33Z" fill="#DABF30"/>
<path d="M23.9134 14.4593C24.2372 12.2978 22.5903 11.1356 20.3401 10.3601L21.0702 7.43138L19.2882 6.98794L18.5767 9.83935C18.1085 9.72178 17.6279 9.61247 17.1484 9.50316L17.8651 6.63319L16.0831 6.18872L15.353 9.11644C14.9652 9.02775 14.5837 8.94113 14.2145 8.84832L14.2165 8.83903L11.758 8.22544L11.2837 10.1291C11.2837 10.1291 12.6067 10.4323 12.5789 10.4509C13.3008 10.6313 13.4307 11.1088 13.4091 11.4883L12.5779 14.8244C12.6274 14.8368 12.6913 14.8553 12.7635 14.8832L12.5748 14.8368L11.4095 19.5104C11.3208 19.729 11.097 20.058 10.5917 19.9332C10.6102 19.959 9.29643 19.6104 9.29643 19.6104L8.41162 21.6503L10.7319 22.2288C11.163 22.3371 11.5858 22.4505 12.0014 22.5567L11.2641 25.5185L13.045 25.9619L13.7752 23.0332C14.2619 23.1641 14.7342 23.2858 15.1962 23.4013L14.4682 26.3177L16.2502 26.7611L16.9875 23.8056C20.0276 24.381 22.3129 24.149 23.275 21.3997C24.0505 19.1866 23.2369 17.9089 21.6374 17.0767C22.8027 16.8085 23.6793 16.0423 23.9134 14.4593ZM19.8399 20.1704C19.2903 22.3845 15.5623 21.1872 14.3537 20.8871L15.3334 16.9632C16.542 17.2654 20.4164 17.8625 19.8399 20.1704ZM20.3917 14.4274C19.8894 16.4414 16.7874 15.4174 15.782 15.1668L16.6688 11.609C17.6743 11.8596 20.9155 12.3267 20.3917 14.4274Z" fill="white"/>
</svg>
