<svg width="33" height="33" viewBox="0 0 33 33" fill="none" xmlns="http://www.w3.org/2000/svg">
<path d="M16.5 33C25.6127 33 33 25.6127 33 16.5C33 7.3873 25.6127 0 16.5 0C7.3873 0 0 7.3873 0 16.5C0 25.6127 7.3873 33 16.5 33Z" fill="#4F5970"/>
<path d="M15.5678 20.4662H22.0616V23.9209H18.0655C18.1315 24.9088 18.1655 25.8256 18.2315 26.8125H14.8686V23.9559H10.8715C10.8715 22.8288 10.7384 21.7006 10.9385 20.6425C11.0385 20.0784 11.6377 19.5845 12.0038 19.0915C13.2704 17.5087 14.5471 15.9339 15.8338 14.3674C16.334 13.7672 16.8331 13.2031 17.3993 12.5338H11.1705V9.07912H14.8686V6.1875H18.0985V9.00797H22.1286C22.1286 10.1712 22.2616 11.2994 22.0616 12.3575C21.9615 12.9216 21.3624 13.4155 20.9633 13.9085C19.6967 15.4913 18.4199 17.0661 17.1332 18.6326C16.6308 19.2601 16.1087 19.8716 15.5678 20.4662Z" fill="white"/>
</svg>
