<svg width="33" height="33" viewBox="0 0 33 33" fill="none" xmlns="http://www.w3.org/2000/svg">
<path d="M16.5 33C25.6127 33 33 25.6127 33 16.5C33 7.3873 25.6127 0 16.5 0C7.3873 0 0 7.3873 0 16.5C0 25.6127 7.3873 33 16.5 33Z" fill="#4F5970"/>
<path fill-rule="evenodd" clip-rule="evenodd" d="M13.662 15.0666H18.1108V17.424H13.662V22.3926H16.468C17.5787 22.3926 18.4872 22.243 19.1947 21.9419C19.9021 21.6418 20.4569 21.2262 20.8601 20.6941C21.2725 20.1407 21.5533 19.5006 21.681 18.8224C21.83 18.0573 21.9025 17.2794 21.8976 16.5C21.9025 15.7206 21.83 14.9427 21.681 14.1776C21.5534 13.4994 21.2727 12.8592 20.8601 12.3059C20.4569 11.7738 19.9011 11.3582 19.1947 11.0581C18.4872 10.757 17.5787 10.6074 16.468 10.6074H13.662V15.0676V15.0666ZM10.8096 17.424H9.28125V15.0676H10.8096V8.25H17.5632C18.811 8.25 19.8907 8.46656 20.8034 8.89659C21.7161 9.32869 22.4606 9.91753 23.0392 10.6652C23.6167 11.4118 24.0467 12.2863 24.3282 13.2877C24.6097 14.289 24.75 15.3605 24.75 16.5C24.7571 17.5851 24.6148 18.666 24.3272 19.7123C24.0467 20.7127 23.6167 21.5882 23.0381 22.3348C22.4606 23.0825 21.7161 23.6713 20.8034 24.1034C19.8907 24.5345 18.81 24.75 17.5632 24.75H10.8096V17.424Z" fill="white"/>
</svg>
