<svg width="33" height="33" viewBox="0 0 33 33" fill="none" xmlns="http://www.w3.org/2000/svg">
<path d="M16.5 33C25.6127 33 33 25.6127 33 16.5C33 7.3873 25.6127 0 16.5 0C7.3873 0 0 7.3873 0 16.5C0 25.6127 7.3873 33 16.5 33Z" fill="#4F5970"/>
<path d="M16.4887 17.0703L9.55762 16.4753L16.4876 12.5544V17.0703H16.4887ZM16.4887 21.6697V28.8265C14.0786 25.0748 11.4221 20.9457 9.28125 17.6034C11.8078 19.0266 14.4458 20.5136 16.4887 21.6697ZM16.4887 11.287L9.28125 15.3089L16.4887 4.125V11.287Z" fill="white"/>
<path d="M23.4196 16.4753L16.4885 17.0703V12.5544L23.4196 16.4753ZM16.4885 21.6707C18.5304 20.5157 21.1673 19.0266 23.6949 17.6034C21.554 20.9468 18.8975 25.0759 16.4885 28.8255V21.6707ZM16.4885 11.287V4.125L23.6949 15.3089L16.4885 11.287Z" fill="white"/>
<path fill-rule="evenodd" clip-rule="evenodd" d="M16.4885 17.0703L23.4185 16.4752L16.4885 20.3682V17.0703Z" fill="white"/>
<path fill-rule="evenodd" clip-rule="evenodd" d="M16.4877 17.0703L9.55664 16.4752L16.4877 20.3682V17.0703Z" fill="white"/>
</svg>
