<svg width="33" height="33" viewBox="0 0 33 33" fill="none" xmlns="http://www.w3.org/2000/svg">
<g clip-path="url(#clip0_1_571)">
<path d="M16.5 33C25.6127 33 33 25.6127 33 16.5C33 7.3873 25.6127 0 16.5 0C7.3873 0 0 7.3873 0 16.5C0 25.6127 7.3873 33 16.5 33Z" fill="#4F5970"/>
<path d="M23.992 12.7359L22.6535 10.3455L25.2471 10.3465C25.2848 10.3485 25.3215 10.3594 25.3542 10.3784C25.3868 10.3975 25.4144 10.424 25.4347 10.4558L25.9401 11.2912L26.8125 12.7359H23.992ZM19.1947 27.2147C19.1328 27.3281 19.0503 27.3281 19.0235 27.3281H17.9644L16.3721 27.3271L20.492 19.8897C20.5252 19.8292 20.5423 19.7612 20.5415 19.6922C20.5407 19.6232 20.5221 19.5555 20.4874 19.4959C20.4527 19.4362 20.4032 19.3865 20.3437 19.3516C20.2841 19.3167 20.2165 19.2978 20.1475 19.2968L13.1247 19.306L11.7284 16.8743H21.9636L21.9801 16.8723C22.0203 16.8703 22.06 16.8619 22.0976 16.8475L22.1234 16.8372C22.2032 16.8026 22.2693 16.7424 22.3111 16.666L23.9972 13.5321H26.7816L19.1947 27.2147ZM15.6863 26.9321L15.3532 26.3814C14.9273 25.675 14.3818 24.7696 14.3199 24.6696C14.2993 24.6366 14.289 24.5551 14.3333 24.4757L16.7506 20.097L19.4741 20.0939L15.6863 26.9321ZM11.0426 22.2781L9.68859 19.8619L11.0529 17.291L12.4214 19.6721L11.0426 22.2781ZM9.22556 22.6545H7.75087C7.71356 22.652 7.67735 22.6408 7.64513 22.6218C7.6129 22.6028 7.58555 22.5766 7.56525 22.5452L7.12491 21.8161L6.1875 20.2641H9.00694L10.3455 22.6545H9.22556ZM13.8043 5.78634C13.8662 5.67188 13.9487 5.67188 13.9745 5.67188H16.6372L12.506 13.1093L12.4977 13.1299C12.486 13.1544 12.4767 13.1799 12.4699 13.2062L12.4616 13.2423C12.4592 13.2569 12.4578 13.2718 12.4575 13.2866L12.4554 13.3073C12.4554 13.3114 12.4554 13.3165 12.4575 13.3207C12.4573 13.3352 12.4587 13.3497 12.4616 13.364C12.4626 13.3765 12.4647 13.3889 12.4678 13.4011L12.4781 13.4382C12.4867 13.462 12.4971 13.4851 12.5091 13.5073C12.5216 13.53 12.5372 13.5508 12.5555 13.5692C12.5716 13.5885 12.59 13.6058 12.6101 13.6208C12.6204 13.63 12.6328 13.6383 12.6442 13.6455L12.6565 13.6548C12.6607 13.6579 12.6658 13.6579 12.671 13.661C12.6916 13.6713 12.7122 13.6806 12.7349 13.6868L12.7586 13.694C12.7879 13.7014 12.8181 13.7052 12.8483 13.7053H13.0278L19.8732 13.696C20.0547 14.0126 20.393 14.6087 20.6807 15.115L21.2293 16.0793H11.0406L11.0282 16.0813C10.9577 16.0822 10.8888 16.102 10.8285 16.1387C10.7683 16.1753 10.719 16.2274 10.6858 16.2896L8.99869 19.47H6.21844C7.43325 17.2755 13.7228 5.93072 13.8043 5.78634ZM17.3178 6.07716L17.5653 6.48656C17.9994 7.20741 18.613 8.22422 18.679 8.33044C18.6997 8.36344 18.7079 8.44491 18.6646 8.52431L16.2484 12.9009L13.5259 12.904L17.3178 6.07716ZM21.9553 10.7198L23.3093 13.1381L21.9285 15.7039L21.3675 14.717C20.988 14.0498 20.7116 13.563 20.5559 13.2918C20.8519 12.7504 21.6294 11.3169 21.9553 10.7198Z" fill="white"/>
</g>
<defs>
<clipPath id="clip0_1_571">
<rect width="33" height="33" fill="white"/>
</clipPath>
</defs>
</svg>
