<svg width="33" height="33" viewBox="0 0 33 33" fill="none" xmlns="http://www.w3.org/2000/svg">
<path d="M16.5 33C25.6127 33 33 25.6127 33 16.5C33 7.3873 25.6127 0 16.5 0C7.3873 0 0 7.3873 0 16.5C0 25.6127 7.3873 33 16.5 33Z" fill="#4F5970"/>
<path d="M19.6821 8.25415H12.1787L11.5579 11.7264L18.325 11.7367C21.6569 11.7367 22.6459 12.9463 22.6139 14.9542C22.5995 15.9834 22.1509 17.7241 21.9612 18.2851C21.4486 19.7907 20.3926 21.5047 16.4347 21.4995L9.85739 21.4954L9.23657 24.9717H16.7204C19.3593 24.9717 20.4834 24.6634 21.6704 24.1158C24.3042 22.901 25.8727 20.2992 26.5028 16.9032C27.4371 11.8501 26.2718 8.25415 19.6811 8.25415H19.6821Z" fill="white"/>
<path d="M16.301 16.2925C16.5454 15.2767 16.6227 14.8694 16.6227 14.8694H8.94406C6.98056 14.8694 6.70006 16.1481 6.5134 16.9216C6.26899 17.9332 6.19165 18.3457 6.19165 18.3457H13.8714C15.8338 18.3457 16.1143 17.067 16.301 16.2925Z" fill="white"/>
</svg>
