<svg width="140" height="30" viewBox="0 0 140 30" fill="none" xmlns="http://www.w3.org/2000/svg">
<path d="M11.7118 0.337891H4.80389L0 29.6263H4.32958L8.02067 5.52666L10.9395 24.3071L11.7543 29.6263H16.5157L11.7118 0.337891Z" fill="#00FF85"/>
<path d="M63.3624 0.337891H56.4545L51.6445 29.6263H55.9741L59.6713 5.52666L62.5901 24.3071L63.4049 29.6263H68.1663L63.3624 0.337891Z" fill="#00FF85"/>
<path d="M16.6309 7.36509C16.6309 4.99308 17.2085 3.17256 18.37 1.90354C19.5253 0.634512 21.2645 0 23.5813 0C25.8981 0 27.6372 0.634512 28.7926 1.90354C29.948 3.17256 30.5317 4.99308 30.5317 7.36509V8.4918H26.0684V7.06859C26.0684 6.00711 25.8616 5.26586 25.4481 4.83297C25.0346 4.40008 24.4569 4.1866 23.709 4.1866C22.9671 4.1866 22.3834 4.40008 21.9699 4.83297C21.5564 5.26586 21.3496 6.01304 21.3496 7.06859C21.3496 8.07076 21.5807 8.96027 22.0367 9.72524C22.4928 10.4902 23.0644 11.2196 23.7516 11.9016C24.4387 12.5835 25.1745 13.2714 25.9589 13.9534C26.7433 14.6353 27.4791 15.3825 28.1663 16.189C28.8534 16.9955 29.425 17.9205 29.8811 18.9524C30.3371 19.9842 30.5682 21.1998 30.5682 22.5934C30.5682 24.9654 29.9723 26.7859 28.7865 28.055C27.6007 29.324 25.8495 29.9585 23.5326 29.9585C21.2158 29.9585 19.4645 29.324 18.2788 28.055C17.093 26.7859 16.4971 24.9654 16.4971 22.5934V20.5831H20.9604V22.884C20.9604 23.9454 21.1793 24.6808 21.6232 25.1018C22.0672 25.5228 22.657 25.7304 23.4049 25.7304C24.1468 25.7304 24.7427 25.5228 25.1866 25.1018C25.6305 24.6808 25.8495 23.9454 25.8495 22.884C25.8495 21.8818 25.6184 20.9923 25.1623 20.2273C24.7063 19.4623 24.1346 18.733 23.4475 18.051C22.7604 17.369 22.0246 16.6871 21.2402 15.9992C20.4557 15.3173 19.7199 14.5701 19.0328 13.7636C18.3457 12.9571 17.7741 12.032 17.318 11.0002C16.8619 9.97431 16.6309 8.75865 16.6309 7.36509Z" fill="#00FF85"/>
<path d="M36.3701 0.337891H31.6514V29.6263H36.3701V0.337891Z" fill="#00FF85"/>
<path d="M51.5477 18.7033V22.5934C51.5477 24.9654 50.9518 26.7859 49.766 28.055C48.5802 29.324 46.8289 29.9585 44.5121 29.9585C42.1953 29.9585 40.444 29.324 39.2583 28.055C38.0725 26.7859 37.4766 24.9654 37.4766 22.5934V7.36509C37.4766 4.99308 38.0725 3.17256 39.2583 1.90354C40.444 0.634512 42.1953 0 44.5121 0C46.8289 0 48.5802 0.634512 49.766 1.90354C50.9518 3.17256 51.5477 4.99308 51.5477 7.36509V10.2115H47.0843V7.07452C47.0843 6.01304 46.8654 5.27179 46.4215 4.8389C45.9776 4.40601 45.3817 4.19253 44.6398 4.19253C43.898 4.19253 43.302 4.40601 42.8581 4.8389C42.4142 5.27179 42.1953 6.01897 42.1953 7.07452V22.8899C42.1953 23.9514 42.4142 24.6867 42.8581 25.1077C43.302 25.5288 43.8919 25.7363 44.6398 25.7363C45.3817 25.7363 45.9776 25.5288 46.4215 25.1077C46.8654 24.6867 47.0843 23.9514 47.0843 22.8899V18.7033H51.5477Z" fill="#00FF85"/>
<path d="M73.0616 24.224L76.6615 0.337891H80.9972L76.3635 29.6263H69.328L64.6943 0.337891H69.4557L73.0616 24.224Z" fill="#00FF85"/>
<path d="M86.792 12.6783H93.2681V16.8649H86.792V25.4397H94.9465V29.6263H82.0732V0.337891H94.9465V4.51856H86.792V12.6783Z" fill="#00FF85"/>
<path d="M100.231 8.41458V29.6263H95.9805V0.337891H101.903L106.75 17.867V0.337891H110.958V29.6263H106.105L100.231 8.41458Z" fill="#00FF85"/>
<path d="M116.704 0.337891V22.9313C116.704 23.9928 116.923 24.7281 117.367 25.1491C117.811 25.5702 118.401 25.7777 119.149 25.7777C119.89 25.7777 120.486 25.5702 120.93 25.1491C121.374 24.7281 121.593 23.9928 121.593 22.9313V0.337891H126.056V22.6348C126.056 25.0068 125.461 26.8273 124.275 28.0963C123.089 29.3654 121.338 29.9999 119.021 29.9999C116.704 29.9999 114.953 29.3654 113.767 28.0963C112.581 26.8273 111.985 25.0068 111.985 22.6348V0.337891H116.704Z" fill="#00FF85"/>
<path d="M131.852 12.6783H138.328V16.8649H131.852V25.4397H140V29.6263H127.127V0.337891H140V4.51856H131.852V12.6783Z" fill="#00FF85"/>
</svg>
